<?xml version="1.0" encoding="UTF-8" standalone="no"?>
<svg
   xmlns:dc="http://purl.org/dc/elements/1.1/"
   xmlns:cc="http://creativecommons.org/ns#"
   xmlns:rdf="http://www.w3.org/1999/02/22-rdf-syntax-ns#"
   xmlns:svg="http://www.w3.org/2000/svg"
   xmlns="http://www.w3.org/2000/svg"
   xmlns:sodipodi="http://sodipodi.sourceforge.net/DTD/sodipodi-0.dtd"
   xmlns:inkscape="http://www.inkscape.org/namespaces/inkscape"
   id="svg3336"
   width="1246.7448"
   height="766.05902"
   version="1.1"
   inkscape:version="0.91 r13725"
   sodipodi:docname="bg2.svg">
  <metadata
     id="metadata19">
    <rdf:RDF>
      <cc:Work
         rdf:about="">
        <dc:format>image/svg+xml</dc:format>
        <dc:type
           rdf:resource="http://purl.org/dc/dcmitype/StillImage" />
        <dc:title></dc:title>
      </cc:Work>
    </rdf:RDF>
  </metadata>
  <sodipodi:namedview
     pagecolor="#ffffff"
     bordercolor="#666666"
     borderopacity="1"
     objecttolerance="10"
     gridtolerance="10"
     guidetolerance="10"
     inkscape:pageopacity="0"
     inkscape:pageshadow="2"
     inkscape:window-width="1920"
     inkscape:window-height="1018"
     id="namedview17"
     showgrid="false"
     inkscape:zoom="0.9216"
     inkscape:cx="529.63119"
     inkscape:cy="382.99478"
     inkscape:window-x="-8"
     inkscape:window-y="-8"
     inkscape:window-maximized="1"
     inkscape:current-layer="svg3336"
     fit-margin-top="0"
     fit-margin-left="0"
     fit-margin-right="0"
     fit-margin-bottom="0" />
  <defs
     id="defs3340">
    <clipPath
       id="clipPath4120">
      <path
         id="rect4122"
         d="m 11.34,10.158 1231.09,0 0,745.96 -1231.09,0 z"
         inkscape:connector-curvature="0"
         style="fill:#0000ff;fill-rule:evenodd;stroke:#000000" />
    </clipPath>
    <clipPath
       id="clipPath4124">
      <path
         id="rect4126"
         d="m 11.34,10.158 1231.09,0 0,745.96 -1231.09,0 z"
         inkscape:connector-curvature="0"
         style="fill:#0000ff;fill-rule:evenodd;stroke:#000000" />
    </clipPath>
    <clipPath
       clipPathUnits="userSpaceOnUse"
       id="clipPath4406">
      <rect
         style="opacity:0.00751881;fill:#2e3647;fill-opacity:1;stroke:none;stroke-opacity:1"
         id="rect4408"
         width="1246.7448"
         height="766.05902"
         x="3.2552083"
         y="3.1857636" />
    </clipPath>
  </defs>
  <g
     id="g4384"
     clip-path="url(#clipPath4406)"
     transform="translate(-3.2552083,-3.1857636)">
    <g
       id="g4339">
      <g
         id="g4321">
        <g
           id="g4304">
          <g
             id="g4288">
            <g
               id="g4273">
              <g
                 id="g4259">
                <g
                   id="g4246">
                  <g
                     id="g4234">
                    <g
                       id="g4223">
                      <g
                         id="g3408">
                        <path
                           style="fill:#000000"
                           d="M 0,386.88 C 0,257.92 0,128.96 0,0 c 418.34667,0 836.69333,0 1255.04,0 0,257.92 0,515.84 0,773.76 -418.34667,0 -836.69333,0 -1255.04,0 C 0,644.8 0,515.84 0,386.88 Z"
                           id="path3424"
                           inkscape:connector-curvature="0" />
                        <path
                           style="fill:#000000"
                           d="M 0,386.88 C 0,257.92 0,128.96 0,0 c 418.34667,0 836.69333,0 1255.04,0 0,257.92 0,515.84 0,773.76 -418.34667,0 -836.69333,0 -1255.04,0 C 0,644.8 0,515.84 0,386.88 Z m 1150.532,21.78 -2.5971,0.28568 2.5971,-0.28568 z m -12.21,-5.503 c -7.5202,-8.90658 -1.2218,5.00261 0,0 z m -5.02,-1.252 c -11.9967,-11.79756 -4.3839,6.18006 0,0 z m -9.204,-4.317 c -22.585,-14.23084 -64.7793,-39.00847 -19.0752,-8.04334 5.6297,3.89582 11.6814,8.78789 19.0752,8.04334 z M 529.38,385.673 c 57.50396,-13.81151 109.56379,-47.60817 160.72412,-74.51873 -32.2876,-26.24575 -96.24606,-7.20222 -139.58495,-14.3447 -85.9722,0.85701 -171.66329,10.43343 -257.68032,9.31873 47.45276,14.55511 -62.43898,10.74225 -2.90105,16.39072 57.50049,16.74979 116.89448,29.31744 175.61419,46.3472 22.21604,4.2288 40.67178,32.88098 63.82801,16.80678 z m -31.59,-3.533 c 3.84479,-4.83476 3.84479,4.83476 0,0 z m -34.68,-19.05 c 0.86087,-5.50999 7.86657,9.49257 0,0 z m -81.912,-18.935 c 6.35499,-5.96774 -0.61053,3.92047 0,0 z m -10.96,-2.348 c 0.12821,-4.96971 5.47328,7.35087 0,0 z m -9.728,-0.863 c 7.782,-4.26356 3.26021,2.96655 0,0 z m -19.767,-6.143 c -33.25172,-5.07334 18.50082,-1.80946 0,0 z M 309.18,322.07 c 29.34124,-4.51017 21.31742,3.28108 0,0 z m 375.41,-10.365 c -7.13546,-12.50036 7.44892,-4.85385 0,0 z m 439.926,75.877 c -1.5682,-9.54314 -5.1615,6.695 0,0 z m -19.924,-14.472 c 29.7788,-0.65382 -3.7898,-15.37614 0,0 z m -32.093,-7.2 c 17.1298,-1.70442 53.9003,-6.57503 16.3102,-12.12919 30.4322,-28.15963 -33.8953,-12.68229 -63.1294,-23.08189 -42.25392,-5.86572 -84.38789,-13.32901 -127.05974,-15.46027 -3.91244,26.9118 76.1967,11.72797 100.77115,32.3802 22.46569,15.27567 50.44109,8.09268 73.10779,18.29115 z m -60.256,-12.746 c -0.6489,-6.15228 3.6818,4.11813 0,0 z m 34.04,-2.174 c -3.1834,-8.60143 7.1862,5.19971 0,0 z m 13.99,-0.02 c 5.9462,-4.11037 1.0103,3.31256 0,0 z m -1.02,-7.91 c 5.3783,-6.49432 4.592,6.05367 0,0 z m -157.03,-17.215 c -8.25118,-3.45241 3.93479,-5.7941 0,0 z m 31.526,-4.143 c 3.85355,-3.13473 1.7761,5.14698 0,0 z m 14.825,0.47 c 5.94538,-4.1086 1.01167,3.31567 0,0 z m -58.895,-1.96 c -9.76927,-11.53411 9.80922,-3.32671 0,0 z m 2.654,-2.192 c -2.88381,-5.29393 -2.88362,5.29334 0,0 z m -8.535,-2.755 c -3.45032,-9.69811 7.47957,3.32664 0,0 z M 177.273,337.22 c -5.09357,-4.05992 -2.66555,2.97806 0,0 z m 6.59,-0.422 c 2.68675,-5.10954 -13.66611,8.21999 0,0 z m 30.748,-9.05 c -5.23204,-1.13378 -1.67148,5.59955 0,0 z m 12.55,-2.297 c 31.98353,-1.82615 -5.49548,-3.94155 0,0 z m 20.708,-3.676 c -1.7984,-4.89373 -2.5382,5.20385 0,0 z m 8.158,0 c -16.58705,-11.96295 -8.14207,2.91035 0,0 z m 705.034,-0.86 c -9.18053,-4.60282 -3.59444,3.08851 0,0 z m -140.976,-9.023 c -5.33376,-5.0699 -5.21116,5.53098 0,0 z m -9.33,-2.636 c -2.54044,-5.20444 -1.79711,4.89217 0,0 z m 35.14,-1.856 c -9.785,-6.00189 -4.29071,4.57902 0,0 z m -41.945,-0.92 c -8.81887,-5.67565 -2.22559,5.44936 0,0 z m 50.393,0.767 -2.59764,0.28453 2.59764,-0.28453 z M 812.011,305.5 c -12.31626,-9.18241 -5.7285,4.6386 0,0 z m 23.252,-1.01 c -4.50125,2.87058 -2.67071,1.70319 0,0 z m 37.906,1.505 -2.59671,0.28501 2.59671,-0.28501 z m -74.047,-1.252 -2.59604,0.2868 2.59604,-0.2868 z M 709.1,296.736 c -1.80069,-4.89349 -2.53916,5.20658 0,0 z"
                           id="path3422"
                           inkscape:connector-curvature="0" />
                        <path
                           style="fill:#000000"
                           d="M 0,386.88 C 0,257.92 0,128.96 0,0 c 418.34667,0 836.69333,0 1255.04,0 0,121.44733 0,242.89467 0,364.342 -73.0198,-8.23354 -144.4712,-26.97119 -217.8796,-32.42036 -44.00055,0.24881 -120.31243,-27.65126 -148.05979,-11.34451 55.44868,14.9223 112.56059,25.86738 169.31359,43.85462 46.884,26.43068 96.3505,55.6928 153.6903,46.20801 48.8835,-16.58582 45.3531,35.24136 42.9355,66.74593 0,98.79144 0,197.58287 0,296.37431 -418.34667,0 -836.69333,0 -1255.04,0 C 0,644.8 0,515.84 0,386.88 Z m 561.704,238.474 c -21.36551,-12.95252 -96.90831,-17.73177 -79.95666,-2.55131 26.63863,1.11156 53.27141,3.59272 79.95666,2.55131 z m -38.678,-236.48 c 58.83782,-17.22096 114.70642,-47.70421 167.08012,-77.71873 -33.74887,-26.49132 -99.44396,-7.08633 -144.16828,-14.16983 -103.00909,3.08299 -205.91057,10.22763 -308.94923,11.00624 -59.05538,5.51185 -118.18243,6.75851 -175.899412,16.87384 -18.863648,19.38026 70.452432,32.63793 96.688742,18.38791 52.42801,-14.80254 109.01233,-35.45933 162.06913,-10.34647 63.55933,14.40607 128.92097,25.19129 187.29021,55.44644 l 7.92169,1.22084 7.96703,-0.70024 0,0 z m 161.564,-77.17 c -7.13434,-12.50026 7.44859,-4.85429 0,0 z M 57.732,323.025 c -2.538383,-5.20318 -1.798747,4.88957 0,0 z m 903.33,-2.112 c -9.18053,-4.60282 -3.59444,3.08851 0,0 z M 820.086,311.89 c -5.33376,-5.0699 -5.21116,5.53098 0,0 z m -9.33,-2.636 c -2.54044,-5.20444 -1.79711,4.89217 0,0 z m 35.14,-1.856 c -9.785,-6.00189 -4.29071,4.57902 0,0 z m -41.945,-0.92 c -8.81887,-5.67565 -2.22559,5.44936 0,0 z m 50.393,0.767 -2.59764,0.28453 2.59764,-0.28453 z m -42.332,-1.747 c -12.31626,-9.18241 -5.7285,4.6386 0,0 z m 23.252,-1.01 c -4.50125,2.87058 -2.67071,1.70319 0,0 z m 37.906,1.505 -2.59671,0.28501 2.59671,-0.28501 z m -74.047,-1.252 -2.59604,0.2868 2.59604,-0.2868 z m -90.022,-8.007 c -1.80069,-4.89349 -2.53916,5.20658 0,0 z m 541.863,111.855 c 5.102,-4.05052 2.6655,2.96891 0,0 z m -100.088,-1.675 c 2.1576,-6.15409 6.9109,8.57591 0,0 z m 75.067,0.396 c 5.9475,-4.10923 1.0092,3.312 0,0 z m 21.256,-41.346 c 8.1212,0.0187 6.7999,0.0156 0,0 z m -344.97,-40.12 c -8.2519,-3.45761 3.92377,-5.79201 0,0 z m 31.524,-4.144 c 3.85355,-3.13473 1.7761,5.14698 0,0 z m 14.825,0.47 c 5.94538,-4.1086 1.01167,3.31567 0,0 z m -58.895,-1.96 c -9.76927,-11.53411 9.80922,-3.32671 0,0 z m 2.654,-2.192 c -2.88381,-5.29393 -2.88362,5.29334 0,0 z m -8.535,-2.755 c -3.45032,-9.69811 7.47957,3.32664 0,0 z"
                           id="path3420"
                           inkscape:connector-curvature="0" />
                        <path
                           style="fill:#000000"
                           d="m 0,543.27 c 0,-76.83 0,-153.66 0,-230.49 58.978765,26.35429 122.65693,54.099 186.13769,23.29128 69.63634,-27.96693 139.33347,-3.8641 207.12799,14.79237 66.35125,9.97527 131.72221,60.63567 196.74449,15.61223 52.03185,-28.07865 100.91752,-72.44885 162.92809,-74.09782 63.54499,17.09105 131.06434,24.17538 196.54564,39.3798 55.7554,29.79091 128.5744,23.98068 176.7492,71.00636 35.9948,24.92661 118.6172,-17.97929 128.8059,33.07401 0,66.21559 0,132.43118 0,198.64677 -36.9761,-2.77826 -136.6619,-27.1636 -139.6309,-1.02235 41.8361,14.278 124.5242,-22.65721 139.6309,31.26381 0,36.34451 0,72.68903 0,109.03354 -418.34633,0 -836.69267,0 -1255.039,0 C 0,696.93 0,620.1 0,543.27 Z m 613.64,93.882 c -62.57609,-31.9475 -133.83936,-27.895 -200.17432,-13.8219 -27.56295,-1.56361 -77.69601,10.30314 -21.44638,8.67617 73.84986,2.4067 147.70367,6.70577 221.6207,5.14573 z M 1245,326.156 C 1149.0374,311.7627 1052.3656,301.76666 955.74622,292.92051 835.41337,285.51112 714.94313,278.72384 594.51459,274.14382 440.05351,272.57734 285.47036,272.76137 131.18159,281.0799 89.633491,270.3569 -4.581654,321.00389 -0.79062206,247.11411 1.3073094,164.76402 -0.71151255,82.371715 0,0 c 418.34667,0 836.69333,0 1255.04,0 0,109.34467 0,218.68933 0,328.034 -2.9129,-1.04286 -8.048,2.0089 -10.04,-1.878 z"
                           id="path3418"
                           inkscape:connector-curvature="0" />
                        <path
                           style="fill:#000000"
                           d="m 0,544.01 c 0.11127392,-76.58269 -0.1458248,-153.16715 0.525,-229.748 56.976563,23.56949 123.84328,53.51833 183.82302,21.91584 65.43282,-25.97612 136.58977,-6.49847 200.84478,13.11946 65.34047,2.36225 127.80802,64.82936 192.37478,21.20087 51.01683,-25.2215 99.03518,-57.38031 149.91573,-77.82121 54.91404,14.58658 112.16873,12.32774 166.15954,29.02053 58.42511,13.45645 112.03415,32.06768 171.59695,45.3261 50.6952,36.4189 108.0324,50.70468 170.6763,45.6172 40.6024,21.27303 9.2345,95.54719 19.1279,138.65496 0,26.88342 0,53.76683 0,80.65025 -67.3412,-8.18392 -138.9156,-21.32245 -204.0562,4.78372 65.7792,12.13512 139.8991,-2.36499 201.0299,17.03049 6.368,39.17156 1.5248,80.04378 3.0273,119.99879 -418.34833,0 -836.69667,0 -1255.045,0 C 0,697.176 0,620.593 0,544.01 Z m 618.42,101.316 c -46.45938,-40.87513 -116.30394,-35.73615 -173.37493,-26.62554 -36.30087,6.03768 -113.32308,3.71678 -123.93595,16.45807 73.26936,8.61897 147.53715,6.18597 221.22783,10.22294 25.35803,0.46422 50.72642,0.53453 76.08305,-0.0555 z m 404.413,-11.153 c 45.9031,-4.32154 -65.26883,-2.44286 0,0 z m -837.087,-3.834 c -5.12735,-3.6562 -10.45317,7.42815 0,0 z m -14.057,-0.47 c -16.91011,-4.03869 -98.79784,-12.09746 -72.086507,-1.61059 23.996907,1.17005 48.063457,3.79672 72.086507,1.61059 z m 992.647,-217.454 -2.5964,0.28593 2.5964,-0.28593 z m 88.193,-140.634 C 1164.435,248.17377 1072.3928,244.74839 982.24248,232.67657 766.668,210.14193 549.52631,212.11167 333.09308,215.92043 221.77176,218.821 111.16553,232.83961 0,238.173 0,158.782 0,79.391 0,0 c 418.34667,0 836.69333,0 1255.04,0 -1.2405,90.587156 2.7174,181.26927 -2.511,271.781 z m -70.282,-17.618 c -5.5937,-6.34652 -5.5937,6.34652 0,0 z m -235.32,-22.537 c 3.27921,-5.52533 3.86064,5.82843 0,0 z M 803.226,221.61 c 12.88612,-6.11231 12.87727,6.11539 0,0 z"
                           id="path3416"
                           inkscape:connector-curvature="0" />
                        <path
                           style="fill:#000000"
                           d="m 0,544.01 c 0.17788388,-76.58273 -0.23285932,-153.16998 0.84,-229.748 60.77343,27.64774 133.4121,52.42828 196.736,18.08343 74.84517,-27.05493 149.62646,13.54387 223.29859,21.68824 56.53248,30.86055 121.66753,44.69382 178.40424,6.80817 51.1451,-23.58594 95.66987,-71.9755 153.39094,-65.36255 54.36382,22.32163 114.11486,3.10116 165.30978,36.29435 55.04801,7.31965 108.99855,25.89759 163.58255,43.19259 40.997,62.49782 146.7749,4.81296 174.8624,62.92595 -4.1995,61.10523 0.977,122.48795 -2.1904,183.53842 -38.241,18.57427 -89.408,-12.35135 -133.9141,-0.48295 -78.2897,13.59864 -158.27703,3.88364 -236.58043,16.44748 104.31721,9.95401 209.35493,7.95323 313.68773,17.68456 48.3953,-21.08412 66.442,27.74018 57.6117,66.34797 -2.0296,16.40137 4.0282,40.89016 -2.9606,52.33234 -417.35945,0 -834.71892,0 -1252.0784,0 0,-76.58333 0,-153.16667 0,-229.75 z m 591.75,108.926 c 38.69218,11.80054 38.7503,-30.24618 1.40225,-26.83793 -86.95441,-28.91509 -178.24366,-3.81531 -266.48717,3.39023 -69.08103,14.63522 -138.43516,-0.24549 -207.21659,-7.87741 -25.523958,-4.47797 -74.885527,7.11349 -23.678811,14.18634 84.901871,3.56521 170.014141,5.49736 254.938841,11.20328 80.31284,5.08129 161.09851,2.61339 241.04148,5.93549 z m 574.182,-240.39 c -1.7568,-7.71835 -7.0755,8.58717 0,0 z m 63.38,-192.774 c -147.1684,-28.46077 -297.53261,-35.50794 -446.7988,-45.92865 -69.90961,-3.29043 -139.99806,-2.33331 -209.89476,-4.71496 -118.77886,0.50083 -238.2965,-2.31673 -356.32686,13.1346 -55.36381,7.34346 -112.50191,2.69277 -166.231095,14.46208 C 11.291455,211.67778 -8.3563045,181.90303 0,147.81578 0,98.543851 0,49.271926 0,0 c 418.34667,0 836.69333,0 1255.04,0 0,73.453333 0,146.90667 0,220.36 -8.5958,-1.15953 -17.6485,4.68256 -25.728,-0.588 z m -964.5,-38.226 c 2.8847,-5.29284 2.88098,5.28968 0,0 z m 272.66,-8.342 c -3.82662,-9.21345 12.34122,5.00488 0,0 z"
                           id="path3414"
                           inkscape:connector-curvature="0" />
                        <path
                           style="fill:#000000"
                           d="m 0,708.654 c 0,-21.702 0,-43.404 0,-65.106 91.582902,11.45795 184.23277,9.06472 276.10439,16.78994 89.62302,3.8386 179.3827,6.07221 268.87637,8.66712 29.28009,2.28723 133.30523,-13.37641 60.93205,-40.35703 -62.3649,-22.45986 -129.06146,-18.95469 -193.38884,-8.55925 -79.20784,2.99827 -158.92116,24.32202 -237.79362,5.26609 C 119.12988,607.23047 57.189547,633.20486 7.6789596,629.66183 -15.401066,583.36644 9.6607387,527.87566 -0.03532292,477.6439 -0.04349939,423.18235 0.09300253,368.71912 0.84,314.262 c 56.504675,23.54946 122.58972,53.36865 182.3446,22.61569 61.71449,-23.33174 130.09193,-11.83466 190.31475,10.4018 66.54322,-3.01006 125.36172,64.30317 192.62541,28.67607 52.71088,-24.83006 102.17971,-55.70738 153.07165,-80.46449 57.99791,4.00109 115.61743,13.5807 172.4227,25.56461 57.84593,14.99285 111.73249,32.5829 170.88219,44.24218 49.4105,33.53941 104.4819,58.03845 166.7219,46.95947 48.2162,3.52193 18.7136,71.61507 25.8188,107.46793 0,36.20525 0,72.41049 0,108.61574 -65.9326,-9.10945 -134.0675,-16.37457 -199.552,-0.306 -89.8868,-6.76377 -179.50123,12.08518 -269.34024,3.32609 -24.70733,-6.12846 -98.48435,19.72415 -32.88961,17.12349 150.89833,10.67321 302.08305,16.34647 453.13145,23.41604 62.4665,-24.23789 57.7069,73.55217 39.7707,101.85938 -415.38741,0 -830.77486,0 -1246.1623,0 0,-21.702 0,-43.404 0,-65.106 z m 1212.134,-38.416 c 5.9462,-4.11037 1.0103,3.31256 0,0 z m 12.785,-513.056 c -108.217,-28.05188 -221.2329,-26.52045 -331.42294,-41.92807 -77.17167,-3.31142 -153.84023,-11.01187 -231.20854,-9.67912 -65.58187,-2.52894 -131.0847,4.77153 -196.27186,1.42554 -58.27908,12.98945 -117.35372,3.51596 -176.11738,9.45959 -68.95474,6.42463 -138.48314,7.7139 -206.51172,22.20179 C 51.607506,130.00738 -15.184247,161.20298 0,102.62152 0,68.414349 0,34.207174 0,0 c 418.34667,0 836.69333,0 1255.04,0 0,52.168333 0,104.33667 0,156.505 -9.8241,-1.63214 -22.1512,10.87254 -30.121,0.677 z m -913.67,-35.108 c 3.81488,-9.33337 2.98337,6.08976 0,0 z"
                           id="path3412"
                           inkscape:connector-curvature="0" />
                        <path
                           style="fill:#1a1a20;fill-opacity:1"
                           d="m 0,729.313 c -13.756492,-75.72128 89.409792,-22.65077 131.0814,-36.14846 81.7813,3.9269 163.63776,5.02738 245.52913,6.61963 50.19215,1.7256 99.78831,-3.86541 150.2591,3.68003 49.2852,-14.70055 100.22497,1.41218 149.84343,-7.10154 72.5375,20.72315 148.77791,1.79687 222.7532,12.50371 98.17052,6.84504 196.58954,0.62171 294.85894,6.12508 45.8464,-34.85473 95.0608,56.05212 36.7775,59.75231 -300.79127,-2.00209 -601.6386,-0.52522 -902.4556,-0.98376 -109.54903,0 -219.09807,0 -328.6471,0 0,-14.81567 0,-29.63133 0,-44.447 z M 632.54,703.02 c -27.93434,-9.59188 -39.16859,9.90961 0,0 z m 12.55,-58.848 C 578.18752,611.12315 501.7827,603.74143 428.96603,617.27718 367.44385,621.10933 305.94656,629.98442 244.49564,630.94557 179.96051,630.23637 112.26899,601.99375 49.912905,627.5255 9.0637702,649.21507 -7.8513692,612.62426 0,578.42397 0,490.29765 0,402.17132 0,314.045 c 60.518197,27.89948 127.31582,52.52139 191.91289,21.09799 69.53405,-26.52017 138.429,0.25881 205.9507,17.26106 64.31561,12.29207 129.44726,57.68635 192.80014,14.94785 47.24,-29.60384 94.22453,-56.7173 146.42995,-76.30918 56.89586,19.61084 120.21433,17.31684 177.91798,36.23224 57.52351,10.95704 116.34374,31.54992 170.79954,51.57572 46.9066,44.53807 116.2058,30.26763 166.4088,48.35583 9.9178,56.20878 -2.6173,115.05323 3.305,172.59158 -13.7923,56.4073 -90.8919,-1.13408 -132.0293,16.44848 -61.5388,9.8086 -122.8202,5.04069 -185.04118,10.45961 -61.15668,1.65883 -122.68889,1.31642 -184.34,2.65774 C 717.31076,630.4046 681.30345,637.14955 645.09,644.172 Z M 1174.72,416.93 c 1.1313,-8.74858 2.5813,9.16388 0,0 z m 16.943,0 c 14.2738,-12.76819 4.6503,6.70458 0,0 z"
                           id="path3410"
                           inkscape:connector-curvature="0" />
                      </g>
                    </g>
                  </g>
                </g>
              </g>
            </g>
          </g>
        </g>
      </g>
    </g>
  </g>
</svg>
