<?xml version="1.0" encoding="UTF-8" standalone="no"?>
<!-- Created with Inkscape (http://www.inkscape.org/) -->

<svg
   xmlns:dc="http://purl.org/dc/elements/1.1/"
   xmlns:cc="http://creativecommons.org/ns#"
   xmlns:rdf="http://www.w3.org/1999/02/22-rdf-syntax-ns#"
   xmlns:svg="http://www.w3.org/2000/svg"
   xmlns="http://www.w3.org/2000/svg"
   xmlns:sodipodi="http://sodipodi.sourceforge.net/DTD/sodipodi-0.dtd"
   xmlns:inkscape="http://www.inkscape.org/namespaces/inkscape"
   width="271.39636"
   height="292.26328"
   viewBox="0 0 271.39637 292.26328"
   id="svg2"
   version="1.1"
   inkscape:version="0.91 r13725"
   sodipodi:docname="logo.svg">
  <defs
     id="defs4">
    <inkscape:path-effect
       effect="powerstroke"
       id="path-effect4562"
       is_visible="true"
       offset_points="0,23.2"
       sort_points="true"
       interpolator_type="Linear"
       interpolator_beta="0.2"
       start_linecap_type="zerowidth"
       linejoin_type="round"
       miter_limit="4"
       end_linecap_type="zerowidth"
       cusp_linecap_type="round" />
    <inkscape:path-effect
       effect="powerstroke"
       id="path-effect4558"
       is_visible="true"
       offset_points="0,23.2"
       sort_points="true"
       interpolator_type="Linear"
       interpolator_beta="0.2"
       start_linecap_type="zerowidth"
       linejoin_type="round"
       miter_limit="4"
       end_linecap_type="zerowidth"
       cusp_linecap_type="round" />
    <inkscape:path-effect
       effect="powerstroke"
       id="path-effect4554"
       is_visible="true"
       offset_points="0,23.2"
       sort_points="true"
       interpolator_type="Linear"
       interpolator_beta="0.2"
       start_linecap_type="zerowidth"
       linejoin_type="round"
       miter_limit="4"
       end_linecap_type="zerowidth"
       cusp_linecap_type="round" />
    <inkscape:path-effect
       effect="powerstroke"
       id="path-effect4550"
       is_visible="true"
       offset_points="0,23.2"
       sort_points="true"
       interpolator_type="Linear"
       interpolator_beta="0.2"
       start_linecap_type="zerowidth"
       linejoin_type="round"
       miter_limit="4"
       end_linecap_type="zerowidth"
       cusp_linecap_type="round" />
    <inkscape:path-effect
       effect="powerstroke"
       id="path-effect4172"
       is_visible="true"
       offset_points="0,22.120717"
       sort_points="true"
       interpolator_type="Linear"
       interpolator_beta="0.2"
       start_linecap_type="zerowidth"
       linejoin_type="round"
       miter_limit="4"
       end_linecap_type="zerowidth"
       cusp_linecap_type="round" />
  </defs>
  <sodipodi:namedview
     id="base"
     pagecolor="#ffffff"
     bordercolor="#666666"
     borderopacity="1.0"
     inkscape:pageopacity="0.0"
     inkscape:pageshadow="2"
     inkscape:zoom="0.98994949"
     inkscape:cx="-104.39279"
     inkscape:cy="147.76407"
     inkscape:document-units="px"
     inkscape:current-layer="layer1"
     showgrid="false"
     units="px"
     showborder="true"
     inkscape:showpageshadow="false"
     fit-margin-top="0"
     fit-margin-left="0"
     fit-margin-right="0"
     fit-margin-bottom="0"
     inkscape:window-width="1920"
     inkscape:window-height="1018"
     inkscape:window-x="-8"
     inkscape:window-y="-8"
     inkscape:window-maximized="1" />
  <metadata
     id="metadata7">
    <rdf:RDF>
      <cc:Work
         rdf:about="">
        <dc:format>image/svg+xml</dc:format>
        <dc:type
           rdf:resource="http://purl.org/dc/dcmitype/StillImage" />
        <dc:title></dc:title>
      </cc:Work>
    </rdf:RDF>
  </metadata>
  <g
     inkscape:label="Layer 1"
     inkscape:groupmode="layer"
     id="layer1"
     transform="translate(-86.306863,-654.11546)">
    <g
       transform="matrix(1.3791601,0,0,1.7349425,-29.329785,59.66045)"
       style="font-style:normal;font-variant:normal;font-weight:normal;font-stretch:normal;font-size:40px;line-height:125%;font-family:SimSun-ExtB;-inkscape-font-specification:SimSun-ExtB;letter-spacing:0px;word-spacing:0px;fill:#000050;fill-opacity:0.9881657;stroke:none;stroke-width:1px;stroke-linecap:butt;stroke-linejoin:miter;stroke-opacity:1"
       id="flowRoot4136">
      <path
         d="m 95.564453,407.08984 c -3.90625,-5.85937 -5.859375,-12.20703 -5.859375,-19.04297 0,-14.64843 5.371094,-25.8789 16.113282,-33.6914 11.71875,-7.8125 25.39062,-11.71875 41.01562,-11.71875 8.78907,0 17.08985,1.46484 24.90235,4.39453 7.8125,1.95313 13.18359,2.92969 16.11328,2.92969 2.92969,0 5.37109,-0.48828 7.32422,-1.46485 1.95313,-0.97656 4.39453,-2.92968 7.32422,-5.85937 l 5.85937,48.33984 -8.78906,1.46485 c -3.90625,-12.69531 -10.74219,-22.46094 -20.50781,-29.29688 -8.78907,-7.8125 -19.04297,-11.71875 -30.76172,-11.71875 -12.69531,0 -22.94922,2.44141 -30.76172,7.32422 -6.83594,4.88281 -10.25391,11.71875 -10.25391,20.50781 0,7.8125 1.46484,14.16016 4.39453,19.04297 3.90625,3.90625 8.70017,8.79154 17.48923,10.74466 6.83594,2.92969 16.56098,4.90669 26.32661,8.81294 10.74219,2.92969 20.63729,5.83303 29.42635,9.73928 7.8125,3.90625 14.16016,9.27734 19.04297,16.11328 5.85937,5.85937 8.78906,12.69531 8.78906,20.50781 0,14.64844 -5.37109,26.36719 -16.11328,35.15625 -9.76563,7.8125 -24.41406,11.71875 -43.94531,11.71875 -12.69531,0 -22.46094,-0.97656 -29.29688,-2.92969 -5.85937,-2.92969 -10.74218,-4.39453 -14.64843,-4.39453 -2.92969,0 -6.34766,0.97656 -10.253909,2.92969 -2.929688,0.97656 -6.347657,2.4414 -10.253907,4.39453 l -4.394531,-54.19922 8.789063,-1.46484 c 2.929687,15.625 9.277344,27.34375 19.042964,35.15625 9.76563,7.8125 23.4375,11.71875 41.01563,11.71875 13.67187,0 23.92578,-2.44141 30.76172,-7.32422 7.8125,-4.88281 11.71875,-12.20703 11.71875,-21.97266 0,-6.83593 -1.95313,-12.20703 -5.85938,-16.11328 -3.90625,-4.88281 -7.8125,-8.30078 -11.71875,-10.25391 -9.76562,-3.90625 -20.50781,-7.8125 -32.22656,-11.71875 -11.71875,-4.88281 -21.97265,-9.27734 -30.76172,-13.18359 -8.78906,-3.90625 -15.136716,-8.78906 -19.042967,-14.64844 z"
         style="font-style:normal;font-variant:normal;font-weight:normal;font-stretch:normal;font-size:375px;font-family:SimSun-ExtB;-inkscape-font-specification:SimSun-ExtB;fill:#000050;fill-opacity:0.9881657"
         id="path4543"
         inkscape:connector-curvature="0"
         sodipodi:nodetypes="sscscssccccscscccccscscsccccsscscccss" />
    </g>
    <g
       transform="scale(1.1377815,0.87890339)"
       style="font-style:normal;font-weight:normal;font-size:330.68118286px;line-height:125%;font-family:sans-serif;letter-spacing:0px;word-spacing:0px;fill:#6a0000;fill-opacity:1;stroke:none;stroke-width:1px;stroke-linecap:butt;stroke-linejoin:miter;stroke-opacity:1"
       id="text4144">
      <path
         d="m 314.38657,1072.9892 -131.16129,2.5397 -0.88783,-3.8547 50.94211,-20.688 0,-161.1425 -50.05428,0 0,-21.9593 c 6.78155,0 14.04749,-0.53822 21.79783,-1.61466 7.75034,-1.18407 13.61692,-2.85255 17.59973,-5.00542 4.95161,-2.69109 8.82678,-6.08187 11.62551,-10.17232 2.90638,-4.19811 4.57486,-9.79558 5.00543,-16.79241 l 25.02714,0 0,216.68661 49.08549,20.688 z"
         id="path4546"
         inkscape:connector-curvature="0"
         sodipodi:nodetypes="ccccccccccccccc" />
    </g>
    <circle
       style="opacity:1;fill:#ffbf44;fill-opacity:1;stroke:none;stroke-width:4.4000001;stroke-linecap:round;stroke-miterlimit:4;stroke-dasharray:none;stroke-opacity:1"
       id="path4566"
       cx="180.81731"
       cy="877.60577"
       r="42.426407" />
  </g>
</svg>
